# xmcd
#
# Track frame offsets:
#	150
#	19141
#	41136
#	73798
#	95240
#	105916
#	117822
#	133825
#
# Disc length: 1942 seconds
#
# Revision: 0
# Processed by: cddbd v1.5.2PL0 Copyright (c) Steve Scherf et al.
# Submitted via: EasyCDDAExtractor 16.0.6.1
#
DISCID=6e079408
DTITLE=Σαντικάϊ Χρήστος - Ύμνοι-Χρ. Σαντικάϊ
DYEAR=2006
DGENRE=Βυζ. Εκκλησιαστική
TTITLE0=Τη υπερμάχω στρατηγώ [κοντάκιον]
TTITLE1=Άξιόν Έστι [α' επιλογή χωρίων]
TTITLE2=Αι γενεαί πάσαι [α' επιλογή χωρίων]
TTITLE3=Η ζωή εν τάφω [α' επιλογή χωρίων]
TTITLE4=Χριστός ανέστη [απολυτίκιον της Αναστάσεως]
TTITLE5=Άξιόν Έστι [β' επιλογή χωρίων]
TTITLE6=Αι γενεαί πάσαι [β' επιλογή χωρίων]
TTITLE7=Η ζωή εν τάφω [β' επιλογή χωρίων]
EXTD=
EXTT0=
EXTT1=
EXTT2=
EXTT3=
EXTT4=
EXTT5=
EXTT6=
EXTT7=
PLAYORDER=
